<?xml version="1.0" encoding="UTF-8" standalone="no"?>
<!DOCTYPE svg PUBLIC "-//W3C//DTD SVG 1.1//EN"
 "http://www.w3.org/Graphics/SVG/1.1/DTD/svg11.dtd">
<!-- Generated by graphviz version 2.50.0 (0)
 -->
<!-- Title: snakemake_dag Pages: 1 -->
<svg width="1973pt" height="481pt"
 viewBox="0.00 0.00 1972.95 481.00" xmlns="http://www.w3.org/2000/svg" xmlns:xlink="http://www.w3.org/1999/xlink">
<g id="graph0" class="graph" transform="scale(1 1) rotate(0) translate(4 477)">
<title>snakemake_dag</title>
<polygon fill="white" stroke="transparent" points="-4,4 -4,-477 1968.95,-477 1968.95,4 -4,4"/>
<!-- 0 -->
<g id="node1" class="node">
<title>0</title>
<path fill="none" stroke="#5682d8" stroke-width="2" d="M996.68,-36C996.68,-36 966.68,-36 966.68,-36 960.68,-36 954.68,-30 954.68,-24 954.68,-24 954.68,-12 954.68,-12 954.68,-6 960.68,0 966.68,0 966.68,0 996.68,0 996.68,0 1002.68,0 1008.68,-6 1008.68,-12 1008.68,-12 1008.68,-24 1008.68,-24 1008.68,-30 1002.68,-36 996.68,-36"/>
<text text-anchor="middle" x="981.68" y="-15.5" font-family="sans" font-size="10.00">all</text>
</g>
<!-- 1 -->
<g id="node2" class="node">
<title>1</title>
<path fill="none" stroke="#56d882" stroke-width="2" d="M1009.68,-108C1009.68,-108 953.68,-108 953.68,-108 947.68,-108 941.68,-102 941.68,-96 941.68,-96 941.68,-84 941.68,-84 941.68,-78 947.68,-72 953.68,-72 953.68,-72 1009.68,-72 1009.68,-72 1015.68,-72 1021.68,-78 1021.68,-84 1021.68,-84 1021.68,-96 1021.68,-96 1021.68,-102 1015.68,-108 1009.68,-108"/>
<text text-anchor="middle" x="981.68" y="-87.5" font-family="sans" font-size="10.00">create_boxplot</text>
</g>
<!-- 1&#45;&gt;0 -->
<g id="edge1" class="edge">
<title>1&#45;&gt;0</title>
<path fill="none" stroke="grey" stroke-width="2" d="M981.68,-71.7C981.68,-63.98 981.68,-54.71 981.68,-46.11"/>
<polygon fill="grey" stroke="grey" stroke-width="2" points="985.18,-46.1 981.68,-36.1 978.18,-46.1 985.18,-46.1"/>
</g>
<!-- 2 -->
<g id="node3" class="node">
<title>2</title>
<path fill="none" stroke="#d85656" stroke-width="2" d="M91.18,-180C91.18,-180 22.18,-180 22.18,-180 16.18,-180 10.18,-174 10.18,-168 10.18,-168 10.18,-156 10.18,-156 10.18,-150 16.18,-144 22.18,-144 22.18,-144 91.18,-144 91.18,-144 97.18,-144 103.18,-150 103.18,-156 103.18,-156 103.18,-168 103.18,-168 103.18,-174 97.18,-180 91.18,-180"/>
<text text-anchor="middle" x="56.68" y="-165" font-family="sans" font-size="10.00">calculate_metrics</text>
<text text-anchor="middle" x="56.68" y="-154" font-family="sans" font-size="10.00">lambda_: 0.0</text>
</g>
<!-- 2&#45;&gt;1 -->
<g id="edge2" class="edge">
<title>2&#45;&gt;1</title>
<path fill="none" stroke="grey" stroke-width="2" d="M103.52,-148.42C111.21,-146.7 119.13,-145.14 126.68,-144 429.49,-98.21 798.36,-91.79 931.09,-91.03"/>
<polygon fill="grey" stroke="grey" stroke-width="2" points="931.36,-94.53 941.35,-90.98 931.33,-87.53 931.36,-94.53"/>
</g>
<!-- 3 -->
<g id="node4" class="node">
<title>3</title>
<path fill="none" stroke="#56d8a9" stroke-width="2" d="M496.18,-473C496.18,-473 461.18,-473 461.18,-473 455.18,-473 449.18,-467 449.18,-461 449.18,-461 449.18,-449 449.18,-449 449.18,-443 455.18,-437 461.18,-437 461.18,-437 496.18,-437 496.18,-437 502.18,-437 508.18,-443 508.18,-449 508.18,-449 508.18,-461 508.18,-461 508.18,-467 502.18,-473 496.18,-473"/>
<text text-anchor="middle" x="478.68" y="-458" font-family="sans" font-size="10.00">true_biadj</text>
<text text-anchor="middle" x="478.68" y="-447" font-family="sans" font-size="10.00">idx: 0</text>
</g>
<!-- 3&#45;&gt;2 -->
<g id="edge18" class="edge">
<title>3&#45;&gt;2</title>
<path fill="none" stroke="grey" stroke-width="2" d="M448.96,-453.75C366.25,-452.5 135.6,-445.04 76.68,-401 6.99,-348.91 -16.86,-297.83 12.68,-216 16.43,-205.6 23.21,-195.8 30.35,-187.52"/>
<polygon fill="grey" stroke="grey" stroke-width="2" points="33,-189.81 37.2,-180.08 27.85,-185.06 33,-189.81"/>
</g>
<!-- 4 -->
<g id="node5" class="node">
<title>4</title>
<path fill="none" stroke="#56a9d8" stroke-width="2" d="M79.68,-257C79.68,-257 33.68,-257 33.68,-257 27.68,-257 21.68,-251 21.68,-245 21.68,-245 21.68,-228 21.68,-228 21.68,-222 27.68,-216 33.68,-216 33.68,-216 79.68,-216 79.68,-216 85.68,-216 91.68,-222 91.68,-228 91.68,-228 91.68,-245 91.68,-245 91.68,-251 85.68,-257 79.68,-257"/>
<text text-anchor="middle" x="56.68" y="-245" font-family="sans" font-size="10.00">fit_ncfa</text>
<text text-anchor="middle" x="56.68" y="-234" font-family="sans" font-size="10.00">llambda: 0.0</text>
<text text-anchor="middle" x="56.68" y="-223" font-family="sans" font-size="10.00">mu: 0.0</text>
</g>
<!-- 3&#45;&gt;4 -->
<g id="edge21" class="edge">
<title>3&#45;&gt;4</title>
<path fill="none" stroke="grey" stroke-width="2" d="M449.13,-453.78C370.23,-452.59 157.12,-445.25 105.68,-401 66.83,-367.58 58.11,-304.71 56.54,-267.42"/>
<polygon fill="grey" stroke="grey" stroke-width="2" points="60.03,-267.08 56.26,-257.18 53.03,-267.27 60.03,-267.08"/>
</g>
<!-- 6 -->
<g id="node7" class="node">
<title>6</title>
<path fill="none" stroke="#56d8d8" stroke-width="2" d="M265.18,-401C265.18,-401 218.18,-401 218.18,-401 212.18,-401 206.18,-395 206.18,-389 206.18,-389 206.18,-377 206.18,-377 206.18,-371 212.18,-365 218.18,-365 218.18,-365 265.18,-365 265.18,-365 271.18,-365 277.18,-371 277.18,-377 277.18,-377 277.18,-389 277.18,-389 277.18,-395 271.18,-401 265.18,-401"/>
<text text-anchor="middle" x="241.68" y="-386" font-family="sans" font-size="10.00">true_params</text>
<text text-anchor="middle" x="241.68" y="-375" font-family="sans" font-size="10.00">seed: 0</text>
</g>
<!-- 3&#45;&gt;6 -->
<g id="edge23" class="edge">
<title>3&#45;&gt;6</title>
<path fill="none" stroke="grey" stroke-width="2" d="M448.92,-445.96C412.1,-435.9 347.54,-417.95 292.68,-401 290.81,-400.42 288.9,-399.82 286.97,-399.21"/>
<polygon fill="grey" stroke="grey" stroke-width="2" points="287.87,-395.83 277.28,-396.09 285.73,-402.49 287.87,-395.83"/>
</g>
<!-- 7 -->
<g id="node8" class="node">
<title>7</title>
<path fill="none" stroke="#d85656" stroke-width="2" d="M217.18,-180C217.18,-180 148.18,-180 148.18,-180 142.18,-180 136.18,-174 136.18,-168 136.18,-168 136.18,-156 136.18,-156 136.18,-150 142.18,-144 148.18,-144 148.18,-144 217.18,-144 217.18,-144 223.18,-144 229.18,-150 229.18,-156 229.18,-156 229.18,-168 229.18,-168 229.18,-174 223.18,-180 217.18,-180"/>
<text text-anchor="middle" x="182.68" y="-165" font-family="sans" font-size="10.00">calculate_metrics</text>
<text text-anchor="middle" x="182.68" y="-154" font-family="sans" font-size="10.00">lambda_: 0.0</text>
</g>
<!-- 3&#45;&gt;7 -->
<g id="edge24" class="edge">
<title>3&#45;&gt;7</title>
<path fill="none" stroke="grey" stroke-width="2" d="M448.98,-452.87C380.3,-449.65 213.31,-438.09 173.68,-401 112.58,-343.82 110.26,-294.71 138.68,-216 142.43,-205.6 149.21,-195.8 156.35,-187.52"/>
<polygon fill="grey" stroke="grey" stroke-width="2" points="159,-189.81 163.2,-180.08 153.85,-185.06 159,-189.81"/>
</g>
<!-- 8 -->
<g id="node9" class="node">
<title>8</title>
<path fill="none" stroke="#56a9d8" stroke-width="2" d="M205.68,-257C205.68,-257 159.68,-257 159.68,-257 153.68,-257 147.68,-251 147.68,-245 147.68,-245 147.68,-228 147.68,-228 147.68,-222 153.68,-216 159.68,-216 159.68,-216 205.68,-216 205.68,-216 211.68,-216 217.68,-222 217.68,-228 217.68,-228 217.68,-245 217.68,-245 217.68,-251 211.68,-257 205.68,-257"/>
<text text-anchor="middle" x="182.68" y="-245" font-family="sans" font-size="10.00">fit_ncfa</text>
<text text-anchor="middle" x="182.68" y="-234" font-family="sans" font-size="10.00">llambda: 0.0</text>
<text text-anchor="middle" x="182.68" y="-223" font-family="sans" font-size="10.00">mu: 0.2</text>
</g>
<!-- 3&#45;&gt;8 -->
<g id="edge27" class="edge">
<title>3&#45;&gt;8</title>
<path fill="none" stroke="grey" stroke-width="2" d="M448.9,-452.81C383.42,-449.51 230.09,-437.95 196.68,-401 163.81,-364.65 168.79,-303.33 175.6,-267.01"/>
<polygon fill="grey" stroke="grey" stroke-width="2" points="179.06,-267.53 177.63,-257.03 172.2,-266.13 179.06,-267.53"/>
</g>
<!-- 9 -->
<g id="node10" class="node">
<title>9</title>
<path fill="none" stroke="#d85656" stroke-width="2" d="M368.18,-180C368.18,-180 299.18,-180 299.18,-180 293.18,-180 287.18,-174 287.18,-168 287.18,-168 287.18,-156 287.18,-156 287.18,-150 293.18,-144 299.18,-144 299.18,-144 368.18,-144 368.18,-144 374.18,-144 380.18,-150 380.18,-156 380.18,-156 380.18,-168 380.18,-168 380.18,-174 374.18,-180 368.18,-180"/>
<text text-anchor="middle" x="333.68" y="-165" font-family="sans" font-size="10.00">calculate_metrics</text>
<text text-anchor="middle" x="333.68" y="-154" font-family="sans" font-size="10.00">lambda_: 0.2</text>
</g>
<!-- 3&#45;&gt;9 -->
<g id="edge28" class="edge">
<title>3&#45;&gt;9</title>
<path fill="none" stroke="grey" stroke-width="2" d="M460.27,-436.91C450.21,-427.01 437.95,-413.96 428.68,-401 386.57,-342.14 376.98,-325.16 352.68,-257 344.88,-235.14 339.94,-209.21 337.06,-190.13"/>
<polygon fill="grey" stroke="grey" stroke-width="2" points="340.5,-189.44 335.63,-180.03 333.57,-190.42 340.5,-189.44"/>
</g>
<!-- 10 -->
<g id="node11" class="node">
<title>10</title>
<path fill="none" stroke="#56a9d8" stroke-width="2" d="M293.68,-257C293.68,-257 247.68,-257 247.68,-257 241.68,-257 235.68,-251 235.68,-245 235.68,-245 235.68,-228 235.68,-228 235.68,-222 241.68,-216 247.68,-216 247.68,-216 293.68,-216 293.68,-216 299.68,-216 305.68,-222 305.68,-228 305.68,-228 305.68,-245 305.68,-245 305.68,-251 299.68,-257 293.68,-257"/>
<text text-anchor="middle" x="270.68" y="-245" font-family="sans" font-size="10.00">fit_ncfa</text>
<text text-anchor="middle" x="270.68" y="-234" font-family="sans" font-size="10.00">llambda: 0.2</text>
<text text-anchor="middle" x="270.68" y="-223" font-family="sans" font-size="10.00">mu: 0.0</text>
</g>
<!-- 3&#45;&gt;10 -->
<g id="edge31" class="edge">
<title>3&#45;&gt;10</title>
<path fill="none" stroke="grey" stroke-width="2" d="M448.89,-450.83C415.84,-445.8 362.94,-433.01 330.68,-401 320.82,-391.22 294.22,-311.29 279.98,-266.92"/>
<polygon fill="grey" stroke="grey" stroke-width="2" points="283.26,-265.71 276.89,-257.25 276.59,-267.84 283.26,-265.71"/>
</g>
<!-- 11 -->
<g id="node12" class="node">
<title>11</title>
<path fill="none" stroke="#d85656" stroke-width="2" d="M489.18,-180C489.18,-180 420.18,-180 420.18,-180 414.18,-180 408.18,-174 408.18,-168 408.18,-168 408.18,-156 408.18,-156 408.18,-150 414.18,-144 420.18,-144 420.18,-144 489.18,-144 489.18,-144 495.18,-144 501.18,-150 501.18,-156 501.18,-156 501.18,-168 501.18,-168 501.18,-174 495.18,-180 489.18,-180"/>
<text text-anchor="middle" x="454.68" y="-165" font-family="sans" font-size="10.00">calculate_metrics</text>
<text text-anchor="middle" x="454.68" y="-154" font-family="sans" font-size="10.00">lambda_: 0.2</text>
</g>
<!-- 3&#45;&gt;11 -->
<g id="edge32" class="edge">
<title>3&#45;&gt;11</title>
<path fill="none" stroke="grey" stroke-width="2" d="M477.25,-436.67C473.23,-387.94 461.81,-249.47 456.93,-190.32"/>
<polygon fill="grey" stroke="grey" stroke-width="2" points="460.41,-189.92 456.1,-180.24 453.43,-190.49 460.41,-189.92"/>
</g>
<!-- 12 -->
<g id="node13" class="node">
<title>12</title>
<path fill="none" stroke="#56a9d8" stroke-width="2" d="M419.68,-257C419.68,-257 373.68,-257 373.68,-257 367.68,-257 361.68,-251 361.68,-245 361.68,-245 361.68,-228 361.68,-228 361.68,-222 367.68,-216 373.68,-216 373.68,-216 419.68,-216 419.68,-216 425.68,-216 431.68,-222 431.68,-228 431.68,-228 431.68,-245 431.68,-245 431.68,-251 425.68,-257 419.68,-257"/>
<text text-anchor="middle" x="396.68" y="-245" font-family="sans" font-size="10.00">fit_ncfa</text>
<text text-anchor="middle" x="396.68" y="-234" font-family="sans" font-size="10.00">llambda: 0.2</text>
<text text-anchor="middle" x="396.68" y="-223" font-family="sans" font-size="10.00">mu: 0.2</text>
</g>
<!-- 3&#45;&gt;12 -->
<g id="edge35" class="edge">
<title>3&#45;&gt;12</title>
<path fill="none" stroke="grey" stroke-width="2" d="M466.46,-436.98C459.64,-426.9 451.39,-413.65 445.68,-401 425.43,-356.16 410.84,-300.71 403.08,-267.27"/>
<polygon fill="grey" stroke="grey" stroke-width="2" points="406.43,-266.21 400.8,-257.23 399.6,-267.76 406.43,-266.21"/>
</g>
<!-- 13 -->
<g id="node14" class="node">
<title>13</title>
<path fill="none" stroke="#d85656" stroke-width="2" d="M600.18,-180C600.18,-180 531.18,-180 531.18,-180 525.18,-180 519.18,-174 519.18,-168 519.18,-168 519.18,-156 519.18,-156 519.18,-150 525.18,-144 531.18,-144 531.18,-144 600.18,-144 600.18,-144 606.18,-144 612.18,-150 612.18,-156 612.18,-156 612.18,-168 612.18,-168 612.18,-174 606.18,-180 600.18,-180"/>
<text text-anchor="middle" x="565.68" y="-165" font-family="sans" font-size="10.00">calculate_metrics</text>
<text text-anchor="middle" x="565.68" y="-154" font-family="sans" font-size="10.00">lambda_: 0.0</text>
</g>
<!-- 3&#45;&gt;13 -->
<g id="edge36" class="edge">
<title>3&#45;&gt;13</title>
<path fill="none" stroke="grey" stroke-width="2" d="M480.85,-436.73C487.38,-385.37 507.01,-235.9 516.68,-216 521.79,-205.47 529.7,-195.57 537.68,-187.24"/>
<polygon fill="grey" stroke="grey" stroke-width="2" points="540.29,-189.58 544.95,-180.06 535.37,-184.6 540.29,-189.58"/>
</g>
<!-- 14 -->
<g id="node15" class="node">
<title>14</title>
<path fill="none" stroke="#56a9d8" stroke-width="2" d="M583.68,-257C583.68,-257 537.68,-257 537.68,-257 531.68,-257 525.68,-251 525.68,-245 525.68,-245 525.68,-228 525.68,-228 525.68,-222 531.68,-216 537.68,-216 537.68,-216 583.68,-216 583.68,-216 589.68,-216 595.68,-222 595.68,-228 595.68,-228 595.68,-245 595.68,-245 595.68,-251 589.68,-257 583.68,-257"/>
<text text-anchor="middle" x="560.68" y="-245" font-family="sans" font-size="10.00">fit_ncfa</text>
<text text-anchor="middle" x="560.68" y="-234" font-family="sans" font-size="10.00">llambda: 0.0</text>
<text text-anchor="middle" x="560.68" y="-223" font-family="sans" font-size="10.00">mu: 0.0</text>
</g>
<!-- 3&#45;&gt;14 -->
<g id="edge39" class="edge">
<title>3&#45;&gt;14</title>
<path fill="none" stroke="grey" stroke-width="2" d="M490.9,-436.98C497.72,-426.9 505.97,-413.65 511.68,-401 531.92,-356.16 546.52,-300.71 554.28,-267.27"/>
<polygon fill="grey" stroke="grey" stroke-width="2" points="557.76,-267.76 556.55,-257.23 550.93,-266.21 557.76,-267.76"/>
</g>
<!-- 16 -->
<g id="node17" class="node">
<title>16</title>
<path fill="none" stroke="#56d8d8" stroke-width="2" d="M741.18,-401C741.18,-401 694.18,-401 694.18,-401 688.18,-401 682.18,-395 682.18,-389 682.18,-389 682.18,-377 682.18,-377 682.18,-371 688.18,-365 694.18,-365 694.18,-365 741.18,-365 741.18,-365 747.18,-365 753.18,-371 753.18,-377 753.18,-377 753.18,-389 753.18,-389 753.18,-395 747.18,-401 741.18,-401"/>
<text text-anchor="middle" x="717.68" y="-386" font-family="sans" font-size="10.00">true_params</text>
<text text-anchor="middle" x="717.68" y="-375" font-family="sans" font-size="10.00">seed: 1</text>
</g>
<!-- 3&#45;&gt;16 -->
<g id="edge41" class="edge">
<title>3&#45;&gt;16</title>
<path fill="none" stroke="grey" stroke-width="2" d="M508.26,-446.01C545.21,-435.93 610.32,-417.88 665.68,-401 667.82,-400.35 670.01,-399.67 672.21,-398.98"/>
<polygon fill="grey" stroke="grey" stroke-width="2" points="673.46,-402.26 681.93,-395.89 671.34,-395.58 673.46,-402.26"/>
</g>
<!-- 17 -->
<g id="node18" class="node">
<title>17</title>
<path fill="none" stroke="#d85656" stroke-width="2" d="M721.18,-180C721.18,-180 652.18,-180 652.18,-180 646.18,-180 640.18,-174 640.18,-168 640.18,-168 640.18,-156 640.18,-156 640.18,-150 646.18,-144 652.18,-144 652.18,-144 721.18,-144 721.18,-144 727.18,-144 733.18,-150 733.18,-156 733.18,-156 733.18,-168 733.18,-168 733.18,-174 727.18,-180 721.18,-180"/>
<text text-anchor="middle" x="686.68" y="-165" font-family="sans" font-size="10.00">calculate_metrics</text>
<text text-anchor="middle" x="686.68" y="-154" font-family="sans" font-size="10.00">lambda_: 0.0</text>
</g>
<!-- 3&#45;&gt;17 -->
<g id="edge42" class="edge">
<title>3&#45;&gt;17</title>
<path fill="none" stroke="grey" stroke-width="2" d="M498.4,-436.95C509.22,-427.06 522.46,-414.02 532.68,-401 591.75,-325.76 587.51,-294.15 642.68,-216 649.37,-206.52 657.3,-196.62 664.58,-187.97"/>
<polygon fill="grey" stroke="grey" stroke-width="2" points="667.46,-190 671.3,-180.12 662.14,-185.44 667.46,-190"/>
</g>
<!-- 18 -->
<g id="node19" class="node">
<title>18</title>
<path fill="none" stroke="#56a9d8" stroke-width="2" d="M709.68,-257C709.68,-257 663.68,-257 663.68,-257 657.68,-257 651.68,-251 651.68,-245 651.68,-245 651.68,-228 651.68,-228 651.68,-222 657.68,-216 663.68,-216 663.68,-216 709.68,-216 709.68,-216 715.68,-216 721.68,-222 721.68,-228 721.68,-228 721.68,-245 721.68,-245 721.68,-251 715.68,-257 709.68,-257"/>
<text text-anchor="middle" x="686.68" y="-245" font-family="sans" font-size="10.00">fit_ncfa</text>
<text text-anchor="middle" x="686.68" y="-234" font-family="sans" font-size="10.00">llambda: 0.0</text>
<text text-anchor="middle" x="686.68" y="-223" font-family="sans" font-size="10.00">mu: 0.2</text>
</g>
<!-- 3&#45;&gt;18 -->
<g id="edge45" class="edge">
<title>3&#45;&gt;18</title>
<path fill="none" stroke="grey" stroke-width="2" d="M508.4,-450.97C541.68,-446.05 595.18,-433.35 627.68,-401 637.5,-391.22 663.6,-311.3 677.57,-266.92"/>
<polygon fill="grey" stroke="grey" stroke-width="2" points="680.95,-267.84 680.59,-257.25 674.27,-265.75 680.95,-267.84"/>
</g>
<!-- 19 -->
<g id="node20" class="node">
<title>19</title>
<path fill="none" stroke="#d85656" stroke-width="2" d="M850.18,-180C850.18,-180 781.18,-180 781.18,-180 775.18,-180 769.18,-174 769.18,-168 769.18,-168 769.18,-156 769.18,-156 769.18,-150 775.18,-144 781.18,-144 781.18,-144 850.18,-144 850.18,-144 856.18,-144 862.18,-150 862.18,-156 862.18,-156 862.18,-168 862.18,-168 862.18,-174 856.18,-180 850.18,-180"/>
<text text-anchor="middle" x="815.68" y="-165" font-family="sans" font-size="10.00">calculate_metrics</text>
<text text-anchor="middle" x="815.68" y="-154" font-family="sans" font-size="10.00">lambda_: 0.2</text>
</g>
<!-- 3&#45;&gt;19 -->
<g id="edge46" class="edge">
<title>3&#45;&gt;19</title>
<path fill="none" stroke="grey" stroke-width="2" d="M508.34,-452.95C577.38,-449.87 745.97,-438.61 785.68,-401 843.57,-346.17 831.65,-240.24 821.96,-190.31"/>
<polygon fill="grey" stroke="grey" stroke-width="2" points="825.34,-189.35 819.89,-180.26 818.48,-190.76 825.34,-189.35"/>
</g>
<!-- 20 -->
<g id="node21" class="node">
<title>20</title>
<path fill="none" stroke="#56a9d8" stroke-width="2" d="M797.68,-257C797.68,-257 751.68,-257 751.68,-257 745.68,-257 739.68,-251 739.68,-245 739.68,-245 739.68,-228 739.68,-228 739.68,-222 745.68,-216 751.68,-216 751.68,-216 797.68,-216 797.68,-216 803.68,-216 809.68,-222 809.68,-228 809.68,-228 809.68,-245 809.68,-245 809.68,-251 803.68,-257 797.68,-257"/>
<text text-anchor="middle" x="774.68" y="-245" font-family="sans" font-size="10.00">fit_ncfa</text>
<text text-anchor="middle" x="774.68" y="-234" font-family="sans" font-size="10.00">llambda: 0.2</text>
<text text-anchor="middle" x="774.68" y="-223" font-family="sans" font-size="10.00">mu: 0.0</text>
</g>
<!-- 3&#45;&gt;20 -->
<g id="edge49" class="edge">
<title>3&#45;&gt;20</title>
<path fill="none" stroke="grey" stroke-width="2" d="M508.58,-452.84C574.32,-449.61 728.25,-438.16 761.68,-401 794.43,-364.58 789.04,-303.28 781.97,-266.98"/>
<polygon fill="grey" stroke="grey" stroke-width="2" points="785.36,-266.07 779.87,-257.01 778.51,-267.52 785.36,-266.07"/>
</g>
<!-- 21 -->
<g id="node22" class="node">
<title>21</title>
<path fill="none" stroke="#d85656" stroke-width="2" d="M961.18,-180C961.18,-180 892.18,-180 892.18,-180 886.18,-180 880.18,-174 880.18,-168 880.18,-168 880.18,-156 880.18,-156 880.18,-150 886.18,-144 892.18,-144 892.18,-144 961.18,-144 961.18,-144 967.18,-144 973.18,-150 973.18,-156 973.18,-156 973.18,-168 973.18,-168 973.18,-174 967.18,-180 961.18,-180"/>
<text text-anchor="middle" x="926.68" y="-165" font-family="sans" font-size="10.00">calculate_metrics</text>
<text text-anchor="middle" x="926.68" y="-154" font-family="sans" font-size="10.00">lambda_: 0.2</text>
</g>
<!-- 3&#45;&gt;21 -->
<g id="edge50" class="edge">
<title>3&#45;&gt;21</title>
<path fill="none" stroke="grey" stroke-width="2" d="M508.22,-453.7C590.45,-452.3 819.8,-444.5 878.68,-401 935.3,-359.16 929.67,-325.78 944.68,-257 948.56,-239.2 947.65,-233.98 944.68,-216 943.24,-207.28 940.55,-198.06 937.68,-189.8"/>
<polygon fill="grey" stroke="grey" stroke-width="2" points="940.91,-188.46 934.16,-180.3 934.35,-190.89 940.91,-188.46"/>
</g>
<!-- 22 -->
<g id="node23" class="node">
<title>22</title>
<path fill="none" stroke="#56a9d8" stroke-width="2" d="M923.68,-257C923.68,-257 877.68,-257 877.68,-257 871.68,-257 865.68,-251 865.68,-245 865.68,-245 865.68,-228 865.68,-228 865.68,-222 871.68,-216 877.68,-216 877.68,-216 923.68,-216 923.68,-216 929.68,-216 935.68,-222 935.68,-228 935.68,-228 935.68,-245 935.68,-245 935.68,-251 929.68,-257 923.68,-257"/>
<text text-anchor="middle" x="900.68" y="-245" font-family="sans" font-size="10.00">fit_ncfa</text>
<text text-anchor="middle" x="900.68" y="-234" font-family="sans" font-size="10.00">llambda: 0.2</text>
<text text-anchor="middle" x="900.68" y="-223" font-family="sans" font-size="10.00">mu: 0.2</text>
</g>
<!-- 3&#45;&gt;22 -->
<g id="edge53" class="edge">
<title>3&#45;&gt;22</title>
<path fill="none" stroke="grey" stroke-width="2" d="M508.23,-453.78C587.13,-452.59 800.23,-445.25 851.68,-401 890.53,-367.58 899.25,-304.71 900.82,-267.42"/>
<polygon fill="grey" stroke="grey" stroke-width="2" points="904.32,-267.27 901.1,-257.18 897.33,-267.08 904.32,-267.27"/>
</g>
<!-- 4&#45;&gt;2 -->
<g id="edge19" class="edge">
<title>4&#45;&gt;2</title>
<path fill="none" stroke="grey" stroke-width="2" d="M56.68,-215.69C56.68,-207.91 56.68,-198.84 56.68,-190.45"/>
<polygon fill="grey" stroke="grey" stroke-width="2" points="60.18,-190.32 56.68,-180.32 53.18,-190.32 60.18,-190.32"/>
</g>
<!-- 5 -->
<g id="node6" class="node">
<title>5</title>
<path fill="none" stroke="#d88556" stroke-width="2" d="M266.68,-329C266.68,-329 212.68,-329 212.68,-329 206.68,-329 200.68,-323 200.68,-317 200.68,-317 200.68,-305 200.68,-305 200.68,-299 206.68,-293 212.68,-293 212.68,-293 266.68,-293 266.68,-293 272.68,-293 278.68,-299 278.68,-305 278.68,-305 278.68,-317 278.68,-317 278.68,-323 272.68,-329 266.68,-329"/>
<text text-anchor="middle" x="239.68" y="-314" font-family="sans" font-size="10.00">generate_data</text>
<text text-anchor="middle" x="239.68" y="-303" font-family="sans" font-size="10.00">n: 1000</text>
</g>
<!-- 5&#45;&gt;4 -->
<g id="edge20" class="edge">
<title>5&#45;&gt;4</title>
<path fill="none" stroke="grey" stroke-width="2" d="M200.42,-294.45C171.33,-282.92 131.64,-267.2 101.33,-255.19"/>
<polygon fill="grey" stroke="grey" stroke-width="2" points="102.44,-251.86 91.85,-251.43 99.86,-258.37 102.44,-251.86"/>
</g>
<!-- 5&#45;&gt;8 -->
<g id="edge26" class="edge">
<title>5&#45;&gt;8</title>
<path fill="none" stroke="grey" stroke-width="2" d="M226.17,-292.82C219.65,-284.53 211.67,-274.38 204.33,-265.04"/>
<polygon fill="grey" stroke="grey" stroke-width="2" points="207.03,-262.82 198.1,-257.12 201.53,-267.14 207.03,-262.82"/>
</g>
<!-- 5&#45;&gt;10 -->
<g id="edge30" class="edge">
<title>5&#45;&gt;10</title>
<path fill="none" stroke="grey" stroke-width="2" d="M247.02,-292.82C250.39,-284.95 254.47,-275.4 258.29,-266.46"/>
<polygon fill="grey" stroke="grey" stroke-width="2" points="261.58,-267.69 262.29,-257.12 255.14,-264.94 261.58,-267.69"/>
</g>
<!-- 5&#45;&gt;12 -->
<g id="edge34" class="edge">
<title>5&#45;&gt;12</title>
<path fill="none" stroke="grey" stroke-width="2" d="M276.88,-292.82C299.54,-282.36 328.61,-268.93 352.44,-257.93"/>
<polygon fill="grey" stroke="grey" stroke-width="2" points="354.01,-261.06 361.62,-253.69 351.08,-254.7 354.01,-261.06"/>
</g>
<!-- 6&#45;&gt;5 -->
<g id="edge22" class="edge">
<title>6&#45;&gt;5</title>
<path fill="none" stroke="grey" stroke-width="2" d="M241.18,-364.7C240.96,-356.98 240.7,-347.71 240.45,-339.11"/>
<polygon fill="grey" stroke="grey" stroke-width="2" points="243.95,-339 240.17,-329.1 236.95,-339.2 243.95,-339"/>
</g>
<!-- 7&#45;&gt;1 -->
<g id="edge3" class="edge">
<title>7&#45;&gt;1</title>
<path fill="none" stroke="grey" stroke-width="2" d="M229.4,-151.66C244.73,-148.86 261.89,-146 277.68,-144 521.46,-113.09 815.2,-98.09 931.12,-93.04"/>
<polygon fill="grey" stroke="grey" stroke-width="2" points="931.61,-96.52 941.45,-92.59 931.31,-89.52 931.61,-96.52"/>
</g>
<!-- 8&#45;&gt;7 -->
<g id="edge25" class="edge">
<title>8&#45;&gt;7</title>
<path fill="none" stroke="grey" stroke-width="2" d="M182.68,-215.69C182.68,-207.91 182.68,-198.84 182.68,-190.45"/>
<polygon fill="grey" stroke="grey" stroke-width="2" points="186.18,-190.32 182.68,-180.32 179.18,-190.32 186.18,-190.32"/>
</g>
<!-- 9&#45;&gt;1 -->
<g id="edge4" class="edge">
<title>9&#45;&gt;1</title>
<path fill="none" stroke="grey" stroke-width="2" d="M380.34,-147.81C386.47,-146.37 392.7,-145.05 398.68,-144 593.75,-109.86 829.62,-96.99 931.17,-92.78"/>
<polygon fill="grey" stroke="grey" stroke-width="2" points="931.59,-96.27 941.44,-92.37 931.31,-89.28 931.59,-96.27"/>
</g>
<!-- 10&#45;&gt;9 -->
<g id="edge29" class="edge">
<title>10&#45;&gt;9</title>
<path fill="none" stroke="grey" stroke-width="2" d="M287.89,-215.69C295.33,-207.13 304.12,-197.02 312,-187.95"/>
<polygon fill="grey" stroke="grey" stroke-width="2" points="314.71,-190.16 318.63,-180.32 309.43,-185.57 314.71,-190.16"/>
</g>
<!-- 11&#45;&gt;1 -->
<g id="edge5" class="edge">
<title>11&#45;&gt;1</title>
<path fill="none" stroke="grey" stroke-width="2" d="M501.33,-145.93C504.14,-145.22 506.94,-144.57 509.68,-144 661.32,-112.34 844.58,-98.61 931.39,-93.54"/>
<polygon fill="grey" stroke="grey" stroke-width="2" points="931.71,-97.03 941.49,-92.96 931.31,-90.04 931.71,-97.03"/>
</g>
<!-- 12&#45;&gt;11 -->
<g id="edge33" class="edge">
<title>12&#45;&gt;11</title>
<path fill="none" stroke="grey" stroke-width="2" d="M412.53,-215.69C419.31,-207.21 427.3,-197.22 434.5,-188.23"/>
<polygon fill="grey" stroke="grey" stroke-width="2" points="437.31,-190.31 440.82,-180.32 431.84,-185.94 437.31,-190.31"/>
</g>
<!-- 13&#45;&gt;1 -->
<g id="edge6" class="edge">
<title>13&#45;&gt;1</title>
<path fill="none" stroke="grey" stroke-width="2" d="M612.4,-148.15C618.53,-146.65 624.74,-145.22 630.68,-144 736.9,-122.15 862.93,-105.3 931.36,-96.9"/>
<polygon fill="grey" stroke="grey" stroke-width="2" points="931.92,-100.35 941.43,-95.67 931.08,-93.4 931.92,-100.35"/>
</g>
<!-- 14&#45;&gt;13 -->
<g id="edge37" class="edge">
<title>14&#45;&gt;13</title>
<path fill="none" stroke="grey" stroke-width="2" d="M562.04,-215.69C562.58,-207.91 563.21,-198.84 563.78,-190.45"/>
<polygon fill="grey" stroke="grey" stroke-width="2" points="567.29,-190.54 564.48,-180.32 560.3,-190.05 567.29,-190.54"/>
</g>
<!-- 15 -->
<g id="node16" class="node">
<title>15</title>
<path fill="none" stroke="#d88556" stroke-width="2" d="M745.68,-329C745.68,-329 691.68,-329 691.68,-329 685.68,-329 679.68,-323 679.68,-317 679.68,-317 679.68,-305 679.68,-305 679.68,-299 685.68,-293 691.68,-293 691.68,-293 745.68,-293 745.68,-293 751.68,-293 757.68,-299 757.68,-305 757.68,-305 757.68,-317 757.68,-317 757.68,-323 751.68,-329 745.68,-329"/>
<text text-anchor="middle" x="718.68" y="-314" font-family="sans" font-size="10.00">generate_data</text>
<text text-anchor="middle" x="718.68" y="-303" font-family="sans" font-size="10.00">n: 1000</text>
</g>
<!-- 15&#45;&gt;14 -->
<g id="edge38" class="edge">
<title>15&#45;&gt;14</title>
<path fill="none" stroke="grey" stroke-width="2" d="M681.23,-292.82C658.35,-282.32 628.97,-268.84 604.95,-257.81"/>
<polygon fill="grey" stroke="grey" stroke-width="2" points="606.24,-254.55 595.69,-253.56 603.32,-260.92 606.24,-254.55"/>
</g>
<!-- 15&#45;&gt;18 -->
<g id="edge44" class="edge">
<title>15&#45;&gt;18</title>
<path fill="none" stroke="grey" stroke-width="2" d="M711.09,-292.82C707.62,-284.95 703.4,-275.4 699.46,-266.46"/>
<polygon fill="grey" stroke="grey" stroke-width="2" points="702.58,-264.85 695.34,-257.12 696.17,-267.68 702.58,-264.85"/>
</g>
<!-- 15&#45;&gt;20 -->
<g id="edge48" class="edge">
<title>15&#45;&gt;20</title>
<path fill="none" stroke="grey" stroke-width="2" d="M731.95,-292.82C738.35,-284.53 746.19,-274.38 753.4,-265.04"/>
<polygon fill="grey" stroke="grey" stroke-width="2" points="756.18,-267.17 759.52,-257.12 750.64,-262.89 756.18,-267.17"/>
</g>
<!-- 15&#45;&gt;22 -->
<g id="edge52" class="edge">
<title>15&#45;&gt;22</title>
<path fill="none" stroke="grey" stroke-width="2" d="M757.72,-294.45C786.56,-282.96 825.87,-267.3 855.97,-255.31"/>
<polygon fill="grey" stroke="grey" stroke-width="2" points="857.4,-258.51 865.4,-251.55 854.81,-252 857.4,-258.51"/>
</g>
<!-- 16&#45;&gt;15 -->
<g id="edge40" class="edge">
<title>16&#45;&gt;15</title>
<path fill="none" stroke="grey" stroke-width="2" d="M717.93,-364.7C718.04,-356.98 718.17,-347.71 718.29,-339.11"/>
<polygon fill="grey" stroke="grey" stroke-width="2" points="721.79,-339.15 718.43,-329.1 714.79,-339.05 721.79,-339.15"/>
</g>
<!-- 17&#45;&gt;1 -->
<g id="edge7" class="edge">
<title>17&#45;&gt;1</title>
<path fill="none" stroke="grey" stroke-width="2" d="M733.42,-149.91C787.41,-137.1 875.9,-116.1 931.36,-102.94"/>
<polygon fill="grey" stroke="grey" stroke-width="2" points="932.39,-106.29 941.32,-100.58 930.78,-99.48 932.39,-106.29"/>
</g>
<!-- 18&#45;&gt;17 -->
<g id="edge43" class="edge">
<title>18&#45;&gt;17</title>
<path fill="none" stroke="grey" stroke-width="2" d="M686.68,-215.69C686.68,-207.91 686.68,-198.84 686.68,-190.45"/>
<polygon fill="grey" stroke="grey" stroke-width="2" points="690.18,-190.32 686.68,-180.32 683.18,-190.32 690.18,-190.32"/>
</g>
<!-- 19&#45;&gt;1 -->
<g id="edge8" class="edge">
<title>19&#45;&gt;1</title>
<path fill="none" stroke="grey" stroke-width="2" d="M856.29,-143.88C879.16,-134.23 907.92,-122.1 932.12,-111.9"/>
<polygon fill="grey" stroke="grey" stroke-width="2" points="933.63,-115.06 941.49,-107.95 930.91,-108.61 933.63,-115.06"/>
</g>
<!-- 20&#45;&gt;19 -->
<g id="edge47" class="edge">
<title>20&#45;&gt;19</title>
<path fill="none" stroke="grey" stroke-width="2" d="M785.88,-215.69C790.53,-207.47 795.98,-197.83 800.94,-189.05"/>
<polygon fill="grey" stroke="grey" stroke-width="2" points="804.01,-190.75 805.88,-180.32 797.91,-187.3 804.01,-190.75"/>
</g>
<!-- 21&#45;&gt;1 -->
<g id="edge9" class="edge">
<title>21&#45;&gt;1</title>
<path fill="none" stroke="grey" stroke-width="2" d="M940.27,-143.7C946.8,-135.39 954.75,-125.28 961.92,-116.14"/>
<polygon fill="grey" stroke="grey" stroke-width="2" points="964.81,-118.13 968.24,-108.1 959.31,-113.81 964.81,-118.13"/>
</g>
<!-- 22&#45;&gt;21 -->
<g id="edge51" class="edge">
<title>22&#45;&gt;21</title>
<path fill="none" stroke="grey" stroke-width="2" d="M907.78,-215.69C910.64,-207.73 913.97,-198.44 917.04,-189.89"/>
<polygon fill="grey" stroke="grey" stroke-width="2" points="920.39,-190.91 920.47,-180.32 913.8,-188.55 920.39,-190.91"/>
</g>
<!-- 23 -->
<g id="node24" class="node">
<title>23</title>
<path fill="none" stroke="#d85656" stroke-width="2" d="M1072.18,-180C1072.18,-180 1003.18,-180 1003.18,-180 997.18,-180 991.18,-174 991.18,-168 991.18,-168 991.18,-156 991.18,-156 991.18,-150 997.18,-144 1003.18,-144 1003.18,-144 1072.18,-144 1072.18,-144 1078.18,-144 1084.18,-150 1084.18,-156 1084.18,-156 1084.18,-168 1084.18,-168 1084.18,-174 1078.18,-180 1072.18,-180"/>
<text text-anchor="middle" x="1037.68" y="-165" font-family="sans" font-size="10.00">calculate_metrics</text>
<text text-anchor="middle" x="1037.68" y="-154" font-family="sans" font-size="10.00">lambda_: 0.0</text>
</g>
<!-- 23&#45;&gt;1 -->
<g id="edge10" class="edge">
<title>23&#45;&gt;1</title>
<path fill="none" stroke="grey" stroke-width="2" d="M1023.84,-143.7C1017.19,-135.39 1009.1,-125.28 1001.79,-116.14"/>
<polygon fill="grey" stroke="grey" stroke-width="2" points="1004.34,-113.73 995.36,-108.1 998.88,-118.1 1004.34,-113.73"/>
</g>
<!-- 24 -->
<g id="node25" class="node">
<title>24</title>
<path fill="none" stroke="#56d8a9" stroke-width="2" d="M1504.18,-473C1504.18,-473 1469.18,-473 1469.18,-473 1463.18,-473 1457.18,-467 1457.18,-461 1457.18,-461 1457.18,-449 1457.18,-449 1457.18,-443 1463.18,-437 1469.18,-437 1469.18,-437 1504.18,-437 1504.18,-437 1510.18,-437 1516.18,-443 1516.18,-449 1516.18,-449 1516.18,-461 1516.18,-461 1516.18,-467 1510.18,-473 1504.18,-473"/>
<text text-anchor="middle" x="1486.68" y="-458" font-family="sans" font-size="10.00">true_biadj</text>
<text text-anchor="middle" x="1486.68" y="-447" font-family="sans" font-size="10.00">idx: 1</text>
</g>
<!-- 24&#45;&gt;23 -->
<g id="edge54" class="edge">
<title>24&#45;&gt;23</title>
<path fill="none" stroke="grey" stroke-width="2" d="M1456.96,-453.75C1374.25,-452.5 1143.6,-445.04 1084.68,-401 1028.58,-359.07 1035.22,-325.51 1020.68,-257 1016.9,-239.17 1017.86,-234 1020.68,-216 1022.04,-207.31 1024.58,-198.1 1027.29,-189.84"/>
<polygon fill="grey" stroke="grey" stroke-width="2" points="1030.62,-190.93 1030.61,-180.33 1024.01,-188.62 1030.62,-190.93"/>
</g>
<!-- 25 -->
<g id="node26" class="node">
<title>25</title>
<path fill="none" stroke="#56a9d8" stroke-width="2" d="M1087.68,-257C1087.68,-257 1041.68,-257 1041.68,-257 1035.68,-257 1029.68,-251 1029.68,-245 1029.68,-245 1029.68,-228 1029.68,-228 1029.68,-222 1035.68,-216 1041.68,-216 1041.68,-216 1087.68,-216 1087.68,-216 1093.68,-216 1099.68,-222 1099.68,-228 1099.68,-228 1099.68,-245 1099.68,-245 1099.68,-251 1093.68,-257 1087.68,-257"/>
<text text-anchor="middle" x="1064.68" y="-245" font-family="sans" font-size="10.00">fit_ncfa</text>
<text text-anchor="middle" x="1064.68" y="-234" font-family="sans" font-size="10.00">llambda: 0.0</text>
<text text-anchor="middle" x="1064.68" y="-223" font-family="sans" font-size="10.00">mu: 0.0</text>
</g>
<!-- 24&#45;&gt;25 -->
<g id="edge57" class="edge">
<title>24&#45;&gt;25</title>
<path fill="none" stroke="grey" stroke-width="2" d="M1457.13,-453.78C1378.23,-452.59 1165.12,-445.25 1113.68,-401 1074.83,-367.58 1066.11,-304.71 1064.54,-267.42"/>
<polygon fill="grey" stroke="grey" stroke-width="2" points="1068.03,-267.08 1064.26,-257.18 1061.03,-267.27 1068.03,-267.08"/>
</g>
<!-- 27 -->
<g id="node28" class="node">
<title>27</title>
<path fill="none" stroke="#56d8d8" stroke-width="2" d="M1271.18,-401C1271.18,-401 1224.18,-401 1224.18,-401 1218.18,-401 1212.18,-395 1212.18,-389 1212.18,-389 1212.18,-377 1212.18,-377 1212.18,-371 1218.18,-365 1224.18,-365 1224.18,-365 1271.18,-365 1271.18,-365 1277.18,-365 1283.18,-371 1283.18,-377 1283.18,-377 1283.18,-389 1283.18,-389 1283.18,-395 1277.18,-401 1271.18,-401"/>
<text text-anchor="middle" x="1247.68" y="-386" font-family="sans" font-size="10.00">true_params</text>
<text text-anchor="middle" x="1247.68" y="-375" font-family="sans" font-size="10.00">seed: 0</text>
</g>
<!-- 24&#45;&gt;27 -->
<g id="edge59" class="edge">
<title>24&#45;&gt;27</title>
<path fill="none" stroke="grey" stroke-width="2" d="M1457.1,-446.01C1420.14,-435.93 1355.03,-417.88 1299.68,-401 1297.54,-400.35 1295.35,-399.67 1293.14,-398.98"/>
<polygon fill="grey" stroke="grey" stroke-width="2" points="1294.01,-395.58 1283.42,-395.89 1291.9,-402.26 1294.01,-395.58"/>
</g>
<!-- 28 -->
<g id="node29" class="node">
<title>28</title>
<path fill="none" stroke="#d85656" stroke-width="2" d="M1183.18,-180C1183.18,-180 1114.18,-180 1114.18,-180 1108.18,-180 1102.18,-174 1102.18,-168 1102.18,-168 1102.18,-156 1102.18,-156 1102.18,-150 1108.18,-144 1114.18,-144 1114.18,-144 1183.18,-144 1183.18,-144 1189.18,-144 1195.18,-150 1195.18,-156 1195.18,-156 1195.18,-168 1195.18,-168 1195.18,-174 1189.18,-180 1183.18,-180"/>
<text text-anchor="middle" x="1148.68" y="-165" font-family="sans" font-size="10.00">calculate_metrics</text>
<text text-anchor="middle" x="1148.68" y="-154" font-family="sans" font-size="10.00">lambda_: 0.0</text>
</g>
<!-- 24&#45;&gt;28 -->
<g id="edge60" class="edge">
<title>24&#45;&gt;28</title>
<path fill="none" stroke="grey" stroke-width="2" d="M1457.01,-452.95C1387.97,-449.87 1219.39,-438.61 1179.68,-401 1121.76,-346.14 1133.13,-240.22 1142.55,-190.3"/>
<polygon fill="grey" stroke="grey" stroke-width="2" points="1146.03,-190.75 1144.56,-180.26 1139.17,-189.37 1146.03,-190.75"/>
</g>
<!-- 29 -->
<g id="node30" class="node">
<title>29</title>
<path fill="none" stroke="#56a9d8" stroke-width="2" d="M1213.68,-257C1213.68,-257 1167.68,-257 1167.68,-257 1161.68,-257 1155.68,-251 1155.68,-245 1155.68,-245 1155.68,-228 1155.68,-228 1155.68,-222 1161.68,-216 1167.68,-216 1167.68,-216 1213.68,-216 1213.68,-216 1219.68,-216 1225.68,-222 1225.68,-228 1225.68,-228 1225.68,-245 1225.68,-245 1225.68,-251 1219.68,-257 1213.68,-257"/>
<text text-anchor="middle" x="1190.68" y="-245" font-family="sans" font-size="10.00">fit_ncfa</text>
<text text-anchor="middle" x="1190.68" y="-234" font-family="sans" font-size="10.00">llambda: 0.0</text>
<text text-anchor="middle" x="1190.68" y="-223" font-family="sans" font-size="10.00">mu: 0.2</text>
</g>
<!-- 24&#45;&gt;29 -->
<g id="edge63" class="edge">
<title>24&#45;&gt;29</title>
<path fill="none" stroke="grey" stroke-width="2" d="M1457.15,-452.89C1391.42,-449.76 1236.2,-438.48 1202.68,-401 1170.12,-364.61 1175.81,-303.56 1183.11,-267.25"/>
<polygon fill="grey" stroke="grey" stroke-width="2" points="1186.57,-267.78 1185.28,-257.27 1179.73,-266.29 1186.57,-267.78"/>
</g>
<!-- 30 -->
<g id="node31" class="node">
<title>30</title>
<path fill="none" stroke="#d85656" stroke-width="2" d="M1313.18,-180C1313.18,-180 1244.18,-180 1244.18,-180 1238.18,-180 1232.18,-174 1232.18,-168 1232.18,-168 1232.18,-156 1232.18,-156 1232.18,-150 1238.18,-144 1244.18,-144 1244.18,-144 1313.18,-144 1313.18,-144 1319.18,-144 1325.18,-150 1325.18,-156 1325.18,-156 1325.18,-168 1325.18,-168 1325.18,-174 1319.18,-180 1313.18,-180"/>
<text text-anchor="middle" x="1278.68" y="-165" font-family="sans" font-size="10.00">calculate_metrics</text>
<text text-anchor="middle" x="1278.68" y="-154" font-family="sans" font-size="10.00">lambda_: 0.2</text>
</g>
<!-- 24&#45;&gt;30 -->
<g id="edge64" class="edge">
<title>24&#45;&gt;30</title>
<path fill="none" stroke="grey" stroke-width="2" d="M1468.6,-436.66C1458.64,-426.68 1446.38,-413.65 1436.68,-401 1377.9,-324.36 1379,-294.46 1322.68,-216 1315.91,-206.58 1307.96,-196.68 1300.69,-188.03"/>
<polygon fill="grey" stroke="grey" stroke-width="2" points="1303.14,-185.51 1293.98,-180.17 1297.81,-190.05 1303.14,-185.51"/>
</g>
<!-- 31 -->
<g id="node32" class="node">
<title>31</title>
<path fill="none" stroke="#56a9d8" stroke-width="2" d="M1301.68,-257C1301.68,-257 1255.68,-257 1255.68,-257 1249.68,-257 1243.68,-251 1243.68,-245 1243.68,-245 1243.68,-228 1243.68,-228 1243.68,-222 1249.68,-216 1255.68,-216 1255.68,-216 1301.68,-216 1301.68,-216 1307.68,-216 1313.68,-222 1313.68,-228 1313.68,-228 1313.68,-245 1313.68,-245 1313.68,-251 1307.68,-257 1301.68,-257"/>
<text text-anchor="middle" x="1278.68" y="-245" font-family="sans" font-size="10.00">fit_ncfa</text>
<text text-anchor="middle" x="1278.68" y="-234" font-family="sans" font-size="10.00">llambda: 0.2</text>
<text text-anchor="middle" x="1278.68" y="-223" font-family="sans" font-size="10.00">mu: 0.0</text>
</g>
<!-- 24&#45;&gt;31 -->
<g id="edge67" class="edge">
<title>24&#45;&gt;31</title>
<path fill="none" stroke="grey" stroke-width="2" d="M1456.96,-450.97C1423.68,-446.05 1370.17,-433.35 1337.68,-401 1327.86,-391.22 1301.75,-311.3 1287.79,-266.92"/>
<polygon fill="grey" stroke="grey" stroke-width="2" points="1291.09,-265.75 1284.76,-257.25 1284.41,-267.84 1291.09,-265.75"/>
</g>
<!-- 32 -->
<g id="node33" class="node">
<title>32</title>
<path fill="none" stroke="#d85656" stroke-width="2" d="M1434.18,-180C1434.18,-180 1365.18,-180 1365.18,-180 1359.18,-180 1353.18,-174 1353.18,-168 1353.18,-168 1353.18,-156 1353.18,-156 1353.18,-150 1359.18,-144 1365.18,-144 1365.18,-144 1434.18,-144 1434.18,-144 1440.18,-144 1446.18,-150 1446.18,-156 1446.18,-156 1446.18,-168 1446.18,-168 1446.18,-174 1440.18,-180 1434.18,-180"/>
<text text-anchor="middle" x="1399.68" y="-165" font-family="sans" font-size="10.00">calculate_metrics</text>
<text text-anchor="middle" x="1399.68" y="-154" font-family="sans" font-size="10.00">lambda_: 0.2</text>
</g>
<!-- 24&#45;&gt;32 -->
<g id="edge68" class="edge">
<title>24&#45;&gt;32</title>
<path fill="none" stroke="grey" stroke-width="2" d="M1487.25,-436.85C1487.92,-396.26 1485.61,-292.02 1448.68,-216 1443.56,-205.47 1435.66,-195.57 1427.68,-187.24"/>
<polygon fill="grey" stroke="grey" stroke-width="2" points="1429.98,-184.6 1420.41,-180.06 1425.06,-189.58 1429.98,-184.6"/>
</g>
<!-- 33 -->
<g id="node34" class="node">
<title>33</title>
<path fill="none" stroke="#56a9d8" stroke-width="2" d="M1427.68,-257C1427.68,-257 1381.68,-257 1381.68,-257 1375.68,-257 1369.68,-251 1369.68,-245 1369.68,-245 1369.68,-228 1369.68,-228 1369.68,-222 1375.68,-216 1381.68,-216 1381.68,-216 1427.68,-216 1427.68,-216 1433.68,-216 1439.68,-222 1439.68,-228 1439.68,-228 1439.68,-245 1439.68,-245 1439.68,-251 1433.68,-257 1427.68,-257"/>
<text text-anchor="middle" x="1404.68" y="-245" font-family="sans" font-size="10.00">fit_ncfa</text>
<text text-anchor="middle" x="1404.68" y="-234" font-family="sans" font-size="10.00">llambda: 0.2</text>
<text text-anchor="middle" x="1404.68" y="-223" font-family="sans" font-size="10.00">mu: 0.2</text>
</g>
<!-- 24&#45;&gt;33 -->
<g id="edge71" class="edge">
<title>24&#45;&gt;33</title>
<path fill="none" stroke="grey" stroke-width="2" d="M1474.46,-436.98C1467.64,-426.9 1459.39,-413.65 1453.68,-401 1433.43,-356.16 1418.84,-300.71 1411.08,-267.27"/>
<polygon fill="grey" stroke="grey" stroke-width="2" points="1414.43,-266.21 1408.8,-257.23 1407.6,-267.76 1414.43,-266.21"/>
</g>
<!-- 34 -->
<g id="node35" class="node">
<title>34</title>
<path fill="none" stroke="#d85656" stroke-width="2" d="M1545.18,-180C1545.18,-180 1476.18,-180 1476.18,-180 1470.18,-180 1464.18,-174 1464.18,-168 1464.18,-168 1464.18,-156 1464.18,-156 1464.18,-150 1470.18,-144 1476.18,-144 1476.18,-144 1545.18,-144 1545.18,-144 1551.18,-144 1557.18,-150 1557.18,-156 1557.18,-156 1557.18,-168 1557.18,-168 1557.18,-174 1551.18,-180 1545.18,-180"/>
<text text-anchor="middle" x="1510.68" y="-165" font-family="sans" font-size="10.00">calculate_metrics</text>
<text text-anchor="middle" x="1510.68" y="-154" font-family="sans" font-size="10.00">lambda_: 0.0</text>
</g>
<!-- 24&#45;&gt;34 -->
<g id="edge72" class="edge">
<title>24&#45;&gt;34</title>
<path fill="none" stroke="grey" stroke-width="2" d="M1488.11,-436.67C1492.13,-387.94 1503.55,-249.47 1508.42,-190.32"/>
<polygon fill="grey" stroke="grey" stroke-width="2" points="1511.92,-190.49 1509.26,-180.24 1504.95,-189.92 1511.92,-190.49"/>
</g>
<!-- 35 -->
<g id="node36" class="node">
<title>35</title>
<path fill="none" stroke="#56a9d8" stroke-width="2" d="M1591.68,-257C1591.68,-257 1545.68,-257 1545.68,-257 1539.68,-257 1533.68,-251 1533.68,-245 1533.68,-245 1533.68,-228 1533.68,-228 1533.68,-222 1539.68,-216 1545.68,-216 1545.68,-216 1591.68,-216 1591.68,-216 1597.68,-216 1603.68,-222 1603.68,-228 1603.68,-228 1603.68,-245 1603.68,-245 1603.68,-251 1597.68,-257 1591.68,-257"/>
<text text-anchor="middle" x="1568.68" y="-245" font-family="sans" font-size="10.00">fit_ncfa</text>
<text text-anchor="middle" x="1568.68" y="-234" font-family="sans" font-size="10.00">llambda: 0.0</text>
<text text-anchor="middle" x="1568.68" y="-223" font-family="sans" font-size="10.00">mu: 0.0</text>
</g>
<!-- 24&#45;&gt;35 -->
<g id="edge75" class="edge">
<title>24&#45;&gt;35</title>
<path fill="none" stroke="grey" stroke-width="2" d="M1498.9,-436.98C1505.72,-426.9 1513.97,-413.65 1519.68,-401 1539.92,-356.16 1554.52,-300.71 1562.28,-267.27"/>
<polygon fill="grey" stroke="grey" stroke-width="2" points="1565.76,-267.76 1564.55,-257.23 1558.93,-266.21 1565.76,-267.76"/>
</g>
<!-- 37 -->
<g id="node38" class="node">
<title>37</title>
<path fill="none" stroke="#56d8d8" stroke-width="2" d="M1749.18,-401C1749.18,-401 1702.18,-401 1702.18,-401 1696.18,-401 1690.18,-395 1690.18,-389 1690.18,-389 1690.18,-377 1690.18,-377 1690.18,-371 1696.18,-365 1702.18,-365 1702.18,-365 1749.18,-365 1749.18,-365 1755.18,-365 1761.18,-371 1761.18,-377 1761.18,-377 1761.18,-389 1761.18,-389 1761.18,-395 1755.18,-401 1749.18,-401"/>
<text text-anchor="middle" x="1725.68" y="-386" font-family="sans" font-size="10.00">true_params</text>
<text text-anchor="middle" x="1725.68" y="-375" font-family="sans" font-size="10.00">seed: 1</text>
</g>
<!-- 24&#45;&gt;37 -->
<g id="edge77" class="edge">
<title>24&#45;&gt;37</title>
<path fill="none" stroke="grey" stroke-width="2" d="M1516.26,-446.01C1553.21,-435.93 1618.32,-417.88 1673.68,-401 1675.82,-400.35 1678.01,-399.67 1680.21,-398.98"/>
<polygon fill="grey" stroke="grey" stroke-width="2" points="1681.46,-402.26 1689.93,-395.89 1679.34,-395.58 1681.46,-402.26"/>
</g>
<!-- 38 -->
<g id="node39" class="node">
<title>38</title>
<path fill="none" stroke="#d85656" stroke-width="2" d="M1666.18,-180C1666.18,-180 1597.18,-180 1597.18,-180 1591.18,-180 1585.18,-174 1585.18,-168 1585.18,-168 1585.18,-156 1585.18,-156 1585.18,-150 1591.18,-144 1597.18,-144 1597.18,-144 1666.18,-144 1666.18,-144 1672.18,-144 1678.18,-150 1678.18,-156 1678.18,-156 1678.18,-168 1678.18,-168 1678.18,-174 1672.18,-180 1666.18,-180"/>
<text text-anchor="middle" x="1631.68" y="-165" font-family="sans" font-size="10.00">calculate_metrics</text>
<text text-anchor="middle" x="1631.68" y="-154" font-family="sans" font-size="10.00">lambda_: 0.0</text>
</g>
<!-- 24&#45;&gt;38 -->
<g id="edge78" class="edge">
<title>24&#45;&gt;38</title>
<path fill="none" stroke="grey" stroke-width="2" d="M1507.04,-437C1517.91,-427.22 1531.01,-414.28 1540.68,-401 1582.79,-343.15 1589.39,-324.66 1612.68,-257 1620.19,-235.18 1625.13,-209.44 1628.09,-190.42"/>
<polygon fill="grey" stroke="grey" stroke-width="2" points="1631.58,-190.74 1629.57,-180.34 1624.66,-189.73 1631.58,-190.74"/>
</g>
<!-- 39 -->
<g id="node40" class="node">
<title>39</title>
<path fill="none" stroke="#56a9d8" stroke-width="2" d="M1717.68,-257C1717.68,-257 1671.68,-257 1671.68,-257 1665.68,-257 1659.68,-251 1659.68,-245 1659.68,-245 1659.68,-228 1659.68,-228 1659.68,-222 1665.68,-216 1671.68,-216 1671.68,-216 1717.68,-216 1717.68,-216 1723.68,-216 1729.68,-222 1729.68,-228 1729.68,-228 1729.68,-245 1729.68,-245 1729.68,-251 1723.68,-257 1717.68,-257"/>
<text text-anchor="middle" x="1694.68" y="-245" font-family="sans" font-size="10.00">fit_ncfa</text>
<text text-anchor="middle" x="1694.68" y="-234" font-family="sans" font-size="10.00">llambda: 0.0</text>
<text text-anchor="middle" x="1694.68" y="-223" font-family="sans" font-size="10.00">mu: 0.2</text>
</g>
<!-- 24&#45;&gt;39 -->
<g id="edge81" class="edge">
<title>24&#45;&gt;39</title>
<path fill="none" stroke="grey" stroke-width="2" d="M1516.4,-450.97C1549.68,-446.05 1603.18,-433.35 1635.68,-401 1645.5,-391.22 1671.6,-311.3 1685.57,-266.92"/>
<polygon fill="grey" stroke="grey" stroke-width="2" points="1688.95,-267.84 1688.59,-257.25 1682.27,-265.75 1688.95,-267.84"/>
</g>
<!-- 40 -->
<g id="node41" class="node">
<title>40</title>
<path fill="none" stroke="#d85656" stroke-width="2" d="M1817.18,-180C1817.18,-180 1748.18,-180 1748.18,-180 1742.18,-180 1736.18,-174 1736.18,-168 1736.18,-168 1736.18,-156 1736.18,-156 1736.18,-150 1742.18,-144 1748.18,-144 1748.18,-144 1817.18,-144 1817.18,-144 1823.18,-144 1829.18,-150 1829.18,-156 1829.18,-156 1829.18,-168 1829.18,-168 1829.18,-174 1823.18,-180 1817.18,-180"/>
<text text-anchor="middle" x="1782.68" y="-165" font-family="sans" font-size="10.00">calculate_metrics</text>
<text text-anchor="middle" x="1782.68" y="-154" font-family="sans" font-size="10.00">lambda_: 0.2</text>
</g>
<!-- 24&#45;&gt;40 -->
<g id="edge82" class="edge">
<title>24&#45;&gt;40</title>
<path fill="none" stroke="grey" stroke-width="2" d="M1516.34,-452.95C1585.38,-449.87 1753.97,-438.61 1793.68,-401 1854.32,-343.57 1855.04,-294.56 1826.68,-216 1822.92,-205.6 1816.14,-195.8 1809.01,-187.52"/>
<polygon fill="grey" stroke="grey" stroke-width="2" points="1811.5,-185.06 1802.15,-180.08 1806.36,-189.81 1811.5,-185.06"/>
</g>
<!-- 41 -->
<g id="node42" class="node">
<title>41</title>
<path fill="none" stroke="#56a9d8" stroke-width="2" d="M1805.68,-257C1805.68,-257 1759.68,-257 1759.68,-257 1753.68,-257 1747.68,-251 1747.68,-245 1747.68,-245 1747.68,-228 1747.68,-228 1747.68,-222 1753.68,-216 1759.68,-216 1759.68,-216 1805.68,-216 1805.68,-216 1811.68,-216 1817.68,-222 1817.68,-228 1817.68,-228 1817.68,-245 1817.68,-245 1817.68,-251 1811.68,-257 1805.68,-257"/>
<text text-anchor="middle" x="1782.68" y="-245" font-family="sans" font-size="10.00">fit_ncfa</text>
<text text-anchor="middle" x="1782.68" y="-234" font-family="sans" font-size="10.00">llambda: 0.2</text>
<text text-anchor="middle" x="1782.68" y="-223" font-family="sans" font-size="10.00">mu: 0.0</text>
</g>
<!-- 24&#45;&gt;41 -->
<g id="edge85" class="edge">
<title>24&#45;&gt;41</title>
<path fill="none" stroke="grey" stroke-width="2" d="M1516.58,-452.84C1582.32,-449.61 1736.25,-438.16 1769.68,-401 1802.43,-364.58 1797.04,-303.28 1789.97,-266.98"/>
<polygon fill="grey" stroke="grey" stroke-width="2" points="1793.36,-266.07 1787.87,-257.01 1786.51,-267.52 1793.36,-266.07"/>
</g>
<!-- 42 -->
<g id="node43" class="node">
<title>42</title>
<path fill="none" stroke="#d85656" stroke-width="2" d="M1943.18,-180C1943.18,-180 1874.18,-180 1874.18,-180 1868.18,-180 1862.18,-174 1862.18,-168 1862.18,-168 1862.18,-156 1862.18,-156 1862.18,-150 1868.18,-144 1874.18,-144 1874.18,-144 1943.18,-144 1943.18,-144 1949.18,-144 1955.18,-150 1955.18,-156 1955.18,-156 1955.18,-168 1955.18,-168 1955.18,-174 1949.18,-180 1943.18,-180"/>
<text text-anchor="middle" x="1908.68" y="-165" font-family="sans" font-size="10.00">calculate_metrics</text>
<text text-anchor="middle" x="1908.68" y="-154" font-family="sans" font-size="10.00">lambda_: 0.2</text>
</g>
<!-- 24&#45;&gt;42 -->
<g id="edge86" class="edge">
<title>24&#45;&gt;42</title>
<path fill="none" stroke="grey" stroke-width="2" d="M1516.43,-453.66C1598.68,-452.18 1826.9,-444.19 1885.68,-401 1956.15,-349.22 1982.37,-298.25 1952.68,-216 1948.92,-205.6 1942.14,-195.8 1935.01,-187.52"/>
<polygon fill="grey" stroke="grey" stroke-width="2" points="1937.5,-185.06 1928.15,-180.08 1932.36,-189.81 1937.5,-185.06"/>
</g>
<!-- 43 -->
<g id="node44" class="node">
<title>43</title>
<path fill="none" stroke="#56a9d8" stroke-width="2" d="M1931.68,-257C1931.68,-257 1885.68,-257 1885.68,-257 1879.68,-257 1873.68,-251 1873.68,-245 1873.68,-245 1873.68,-228 1873.68,-228 1873.68,-222 1879.68,-216 1885.68,-216 1885.68,-216 1931.68,-216 1931.68,-216 1937.68,-216 1943.68,-222 1943.68,-228 1943.68,-228 1943.68,-245 1943.68,-245 1943.68,-251 1937.68,-257 1931.68,-257"/>
<text text-anchor="middle" x="1908.68" y="-245" font-family="sans" font-size="10.00">fit_ncfa</text>
<text text-anchor="middle" x="1908.68" y="-234" font-family="sans" font-size="10.00">llambda: 0.2</text>
<text text-anchor="middle" x="1908.68" y="-223" font-family="sans" font-size="10.00">mu: 0.2</text>
</g>
<!-- 24&#45;&gt;43 -->
<g id="edge89" class="edge">
<title>24&#45;&gt;43</title>
<path fill="none" stroke="grey" stroke-width="2" d="M1516.23,-453.78C1595.13,-452.59 1808.23,-445.25 1859.68,-401 1898.53,-367.58 1907.25,-304.71 1908.82,-267.42"/>
<polygon fill="grey" stroke="grey" stroke-width="2" points="1912.32,-267.27 1909.1,-257.18 1905.33,-267.08 1912.32,-267.27"/>
</g>
<!-- 25&#45;&gt;23 -->
<g id="edge55" class="edge">
<title>25&#45;&gt;23</title>
<path fill="none" stroke="grey" stroke-width="2" d="M1057.3,-215.69C1054.34,-207.73 1050.88,-198.44 1047.69,-189.89"/>
<polygon fill="grey" stroke="grey" stroke-width="2" points="1050.9,-188.47 1044.13,-180.32 1044.34,-190.91 1050.9,-188.47"/>
</g>
<!-- 26 -->
<g id="node27" class="node">
<title>26</title>
<path fill="none" stroke="#d88556" stroke-width="2" d="M1273.68,-329C1273.68,-329 1219.68,-329 1219.68,-329 1213.68,-329 1207.68,-323 1207.68,-317 1207.68,-317 1207.68,-305 1207.68,-305 1207.68,-299 1213.68,-293 1219.68,-293 1219.68,-293 1273.68,-293 1273.68,-293 1279.68,-293 1285.68,-299 1285.68,-305 1285.68,-305 1285.68,-317 1285.68,-317 1285.68,-323 1279.68,-329 1273.68,-329"/>
<text text-anchor="middle" x="1246.68" y="-314" font-family="sans" font-size="10.00">generate_data</text>
<text text-anchor="middle" x="1246.68" y="-303" font-family="sans" font-size="10.00">n: 1000</text>
</g>
<!-- 26&#45;&gt;25 -->
<g id="edge56" class="edge">
<title>26&#45;&gt;25</title>
<path fill="none" stroke="grey" stroke-width="2" d="M1207.63,-294.45C1178.79,-282.96 1139.48,-267.3 1109.38,-255.31"/>
<polygon fill="grey" stroke="grey" stroke-width="2" points="1110.55,-252 1099.96,-251.55 1107.95,-258.51 1110.55,-252"/>
</g>
<!-- 26&#45;&gt;29 -->
<g id="edge62" class="edge">
<title>26&#45;&gt;29</title>
<path fill="none" stroke="grey" stroke-width="2" d="M1233.41,-292.82C1227,-284.53 1219.16,-274.38 1211.95,-265.04"/>
<polygon fill="grey" stroke="grey" stroke-width="2" points="1214.72,-262.89 1205.83,-257.12 1209.18,-267.17 1214.72,-262.89"/>
</g>
<!-- 26&#45;&gt;31 -->
<g id="edge66" class="edge">
<title>26&#45;&gt;31</title>
<path fill="none" stroke="grey" stroke-width="2" d="M1254.26,-292.82C1257.74,-284.95 1261.95,-275.4 1265.89,-266.46"/>
<polygon fill="grey" stroke="grey" stroke-width="2" points="1269.18,-267.68 1270.02,-257.12 1262.78,-264.85 1269.18,-267.68"/>
</g>
<!-- 26&#45;&gt;33 -->
<g id="edge70" class="edge">
<title>26&#45;&gt;33</title>
<path fill="none" stroke="grey" stroke-width="2" d="M1284.12,-292.82C1307,-282.32 1336.38,-268.84 1360.41,-257.81"/>
<polygon fill="grey" stroke="grey" stroke-width="2" points="1362.04,-260.92 1369.67,-253.56 1359.12,-254.55 1362.04,-260.92"/>
</g>
<!-- 27&#45;&gt;26 -->
<g id="edge58" class="edge">
<title>27&#45;&gt;26</title>
<path fill="none" stroke="grey" stroke-width="2" d="M1247.43,-364.7C1247.32,-356.98 1247.19,-347.71 1247.07,-339.11"/>
<polygon fill="grey" stroke="grey" stroke-width="2" points="1250.56,-339.05 1246.92,-329.1 1243.57,-339.15 1250.56,-339.05"/>
</g>
<!-- 28&#45;&gt;1 -->
<g id="edge11" class="edge">
<title>28&#45;&gt;1</title>
<path fill="none" stroke="grey" stroke-width="2" d="M1107.83,-143.88C1084.72,-134.19 1055.67,-122.01 1031.27,-111.79"/>
<polygon fill="grey" stroke="grey" stroke-width="2" points="1032.4,-108.46 1021.82,-107.83 1029.69,-114.92 1032.4,-108.46"/>
</g>
<!-- 29&#45;&gt;28 -->
<g id="edge61" class="edge">
<title>29&#45;&gt;28</title>
<path fill="none" stroke="grey" stroke-width="2" d="M1179.2,-215.69C1174.44,-207.47 1168.86,-197.83 1163.77,-189.05"/>
<polygon fill="grey" stroke="grey" stroke-width="2" points="1166.75,-187.22 1158.71,-180.32 1160.7,-190.73 1166.75,-187.22"/>
</g>
<!-- 30&#45;&gt;1 -->
<g id="edge12" class="edge">
<title>30&#45;&gt;1</title>
<path fill="none" stroke="grey" stroke-width="2" d="M1231.94,-149.99C1177.5,-137.15 1087.91,-116.04 1031.98,-102.86"/>
<polygon fill="grey" stroke="grey" stroke-width="2" points="1032.48,-99.38 1021.95,-100.49 1030.88,-106.19 1032.48,-99.38"/>
</g>
<!-- 31&#45;&gt;30 -->
<g id="edge65" class="edge">
<title>31&#45;&gt;30</title>
<path fill="none" stroke="grey" stroke-width="2" d="M1278.68,-215.69C1278.68,-207.91 1278.68,-198.84 1278.68,-190.45"/>
<polygon fill="grey" stroke="grey" stroke-width="2" points="1282.18,-190.32 1278.68,-180.32 1275.18,-190.32 1282.18,-190.32"/>
</g>
<!-- 32&#45;&gt;1 -->
<g id="edge13" class="edge">
<title>32&#45;&gt;1</title>
<path fill="none" stroke="grey" stroke-width="2" d="M1352.94,-148.33C1346.5,-146.77 1339.94,-145.27 1333.68,-144 1226.97,-122.28 1100.39,-105.35 1031.85,-96.91"/>
<polygon fill="grey" stroke="grey" stroke-width="2" points="1032.12,-93.41 1021.77,-95.68 1031.27,-100.36 1032.12,-93.41"/>
</g>
<!-- 33&#45;&gt;32 -->
<g id="edge69" class="edge">
<title>33&#45;&gt;32</title>
<path fill="none" stroke="grey" stroke-width="2" d="M1403.31,-215.69C1402.77,-207.91 1402.15,-198.84 1401.57,-190.45"/>
<polygon fill="grey" stroke="grey" stroke-width="2" points="1405.05,-190.05 1400.87,-180.32 1398.07,-190.54 1405.05,-190.05"/>
</g>
<!-- 34&#45;&gt;1 -->
<g id="edge14" class="edge">
<title>34&#45;&gt;1</title>
<path fill="none" stroke="grey" stroke-width="2" d="M1464.09,-146.16C1460.92,-145.37 1457.76,-144.64 1454.68,-144 1302.64,-112.68 1119.02,-98.79 1032.05,-93.61"/>
<polygon fill="grey" stroke="grey" stroke-width="2" points="1032.12,-90.11 1021.93,-93.02 1031.71,-97.1 1032.12,-90.11"/>
</g>
<!-- 35&#45;&gt;34 -->
<g id="edge73" class="edge">
<title>35&#45;&gt;34</title>
<path fill="none" stroke="grey" stroke-width="2" d="M1552.83,-215.69C1546.05,-207.21 1538.05,-197.22 1530.86,-188.23"/>
<polygon fill="grey" stroke="grey" stroke-width="2" points="1533.51,-185.94 1524.53,-180.32 1528.05,-190.31 1533.51,-185.94"/>
</g>
<!-- 36 -->
<g id="node37" class="node">
<title>36</title>
<path fill="none" stroke="#d88556" stroke-width="2" d="M1753.68,-329C1753.68,-329 1699.68,-329 1699.68,-329 1693.68,-329 1687.68,-323 1687.68,-317 1687.68,-317 1687.68,-305 1687.68,-305 1687.68,-299 1693.68,-293 1699.68,-293 1699.68,-293 1753.68,-293 1753.68,-293 1759.68,-293 1765.68,-299 1765.68,-305 1765.68,-305 1765.68,-317 1765.68,-317 1765.68,-323 1759.68,-329 1753.68,-329"/>
<text text-anchor="middle" x="1726.68" y="-314" font-family="sans" font-size="10.00">generate_data</text>
<text text-anchor="middle" x="1726.68" y="-303" font-family="sans" font-size="10.00">n: 1000</text>
</g>
<!-- 36&#45;&gt;35 -->
<g id="edge74" class="edge">
<title>36&#45;&gt;35</title>
<path fill="none" stroke="grey" stroke-width="2" d="M1689.23,-292.82C1666.35,-282.32 1636.97,-268.84 1612.95,-257.81"/>
<polygon fill="grey" stroke="grey" stroke-width="2" points="1614.24,-254.55 1603.69,-253.56 1611.32,-260.92 1614.24,-254.55"/>
</g>
<!-- 36&#45;&gt;39 -->
<g id="edge80" class="edge">
<title>36&#45;&gt;39</title>
<path fill="none" stroke="grey" stroke-width="2" d="M1719.09,-292.82C1715.62,-284.95 1711.4,-275.4 1707.46,-266.46"/>
<polygon fill="grey" stroke="grey" stroke-width="2" points="1710.58,-264.85 1703.34,-257.12 1704.17,-267.68 1710.58,-264.85"/>
</g>
<!-- 36&#45;&gt;41 -->
<g id="edge84" class="edge">
<title>36&#45;&gt;41</title>
<path fill="none" stroke="grey" stroke-width="2" d="M1739.95,-292.82C1746.35,-284.53 1754.19,-274.38 1761.4,-265.04"/>
<polygon fill="grey" stroke="grey" stroke-width="2" points="1764.18,-267.17 1767.52,-257.12 1758.64,-262.89 1764.18,-267.17"/>
</g>
<!-- 36&#45;&gt;43 -->
<g id="edge88" class="edge">
<title>36&#45;&gt;43</title>
<path fill="none" stroke="grey" stroke-width="2" d="M1765.72,-294.45C1794.56,-282.96 1833.87,-267.3 1863.97,-255.31"/>
<polygon fill="grey" stroke="grey" stroke-width="2" points="1865.4,-258.51 1873.4,-251.55 1862.81,-252 1865.4,-258.51"/>
</g>
<!-- 37&#45;&gt;36 -->
<g id="edge76" class="edge">
<title>37&#45;&gt;36</title>
<path fill="none" stroke="grey" stroke-width="2" d="M1725.93,-364.7C1726.04,-356.98 1726.17,-347.71 1726.29,-339.11"/>
<polygon fill="grey" stroke="grey" stroke-width="2" points="1729.79,-339.15 1726.43,-329.1 1722.79,-339.05 1729.79,-339.15"/>
</g>
<!-- 38&#45;&gt;1 -->
<g id="edge15" class="edge">
<title>38&#45;&gt;1</title>
<path fill="none" stroke="grey" stroke-width="2" d="M1585.01,-147.98C1578.55,-146.48 1571.97,-145.09 1565.68,-144 1370.21,-110.18 1133.96,-97.14 1032.26,-92.84"/>
<polygon fill="grey" stroke="grey" stroke-width="2" points="1032.11,-89.33 1021.97,-92.41 1031.82,-96.32 1032.11,-89.33"/>
</g>
<!-- 39&#45;&gt;38 -->
<g id="edge79" class="edge">
<title>39&#45;&gt;38</title>
<path fill="none" stroke="grey" stroke-width="2" d="M1677.46,-215.69C1670.02,-207.13 1661.24,-197.02 1653.36,-187.95"/>
<polygon fill="grey" stroke="grey" stroke-width="2" points="1655.93,-185.57 1646.73,-180.32 1650.65,-190.16 1655.93,-185.57"/>
</g>
<!-- 40&#45;&gt;1 -->
<g id="edge16" class="edge">
<title>40&#45;&gt;1</title>
<path fill="none" stroke="grey" stroke-width="2" d="M1735.95,-151.76C1720.33,-148.93 1702.8,-146.03 1686.68,-144 1442.27,-113.25 1147.79,-98.14 1031.95,-93.05"/>
<polygon fill="grey" stroke="grey" stroke-width="2" points="1032.1,-89.55 1021.96,-92.61 1031.8,-96.54 1032.1,-89.55"/>
</g>
<!-- 41&#45;&gt;40 -->
<g id="edge83" class="edge">
<title>41&#45;&gt;40</title>
<path fill="none" stroke="grey" stroke-width="2" d="M1782.68,-215.69C1782.68,-207.91 1782.68,-198.84 1782.68,-190.45"/>
<polygon fill="grey" stroke="grey" stroke-width="2" points="1786.18,-190.32 1782.68,-180.32 1779.18,-190.32 1786.18,-190.32"/>
</g>
<!-- 42&#45;&gt;1 -->
<g id="edge17" class="edge">
<title>42&#45;&gt;1</title>
<path fill="none" stroke="grey" stroke-width="2" d="M1861.93,-148.6C1853.89,-146.81 1845.58,-145.18 1837.68,-144 1534.44,-98.66 1165.18,-91.97 1032.32,-91.09"/>
<polygon fill="grey" stroke="grey" stroke-width="2" points="1032.07,-87.58 1022.05,-91.03 1032.03,-94.58 1032.07,-87.58"/>
</g>
<!-- 43&#45;&gt;42 -->
<g id="edge87" class="edge">
<title>43&#45;&gt;42</title>
<path fill="none" stroke="grey" stroke-width="2" d="M1908.68,-215.69C1908.68,-207.91 1908.68,-198.84 1908.68,-190.45"/>
<polygon fill="grey" stroke="grey" stroke-width="2" points="1912.18,-190.32 1908.68,-180.32 1905.18,-190.32 1912.18,-190.32"/>
</g>
</g>
</svg>
